<svg class="svg-icon" style="width: 1em; height: 1em;vertical-align: middle;fill: currentColor;overflow: hidden;" viewBox="0 0 1024 1024" version="1.1" xmlns="http://www.w3.org/2000/svg"><path d="M961.535399 1023.99936c-16.38399 0-31.74398-6.143996-44.031972-18.431988L18.431988 106.495933c-24.575985-24.575985-24.575985-63.48796 0-88.063945s63.48796-24.575985 88.063945 0l899.071439 899.071439a61.823961 61.823961 0 0 1 0 88.063945 61.215962 61.215962 0 0 1-44.031973 18.431988zM62.463961 1023.99936c-16.38399 0-31.74398-6.143996-44.031973-18.431988a61.823961 61.823961 0 0 1 0-88.063945L917.503427 18.431988c24.575985-24.575985 63.48796-24.575985 88.063945 0s24.575985 63.48796 0 88.063945L106.495933 1005.567372A61.215962 61.215962 0 0 1 62.463961 1023.99936z"  /></svg>